<?xml version="1.0" encoding="utf-8"?>
<!-- Generator: Adobe Illustrator 25.0.0, SVG Export Plug-In . SVG Version: 6.00 Build 0)  -->
<svg version="1.1" id="Layer_1" xmlns="http://www.w3.org/2000/svg" xmlns:xlink="http://www.w3.org/1999/xlink" x="0px" y="0px"
	 viewBox="0 0 465 533" style="enable-background:new 0 0 465 533;" xml:space="preserve">
<style type="text/css">
	.st0{fill:#FFFFFF;}
	.st1{fill:none;stroke:#000000;stroke-width:5;stroke-miterlimit:10;}
	.st2{font-family:'TimesNewRomanPS-BoldItalicMT';}
	.st3{font-size:44.366px;}
	.st4{font-size:25px;}
</style>
<g>
	<circle class="st0" cx="70" cy="458" r="51.5"/>
	<path d="M70,409c27.02,0,49,21.98,49,49s-21.98,49-49,49s-49-21.98-49-49S42.98,409,70,409 M70,404c-29.82,0-54,24.18-54,54
		s24.18,54,54,54s54-24.18,54-54S99.82,404,70,404L70,404z"/>
</g>
<g>
	<circle class="st0" cx="70" cy="266" r="51.5"/>
	<path d="M70,217c27.02,0,49,21.98,49,49s-21.98,49-49,49s-49-21.98-49-49S42.98,217,70,217 M70,212c-29.82,0-54,24.18-54,54
		s24.18,54,54,54s54-24.18,54-54S99.82,212,70,212L70,212z"/>
</g>
<g>
	<circle class="st0" cx="70" cy="79" r="51.5"/>
	<path d="M70,30c27.02,0,49,21.98,49,49s-21.98,49-49,49s-49-21.98-49-49S42.98,30,70,30 M70,25c-29.82,0-54,24.18-54,54
		s24.18,54,54,54s54-24.18,54-54S99.82,25,70,25L70,25z"/>
</g>
<g>
	<g>
		<line class="st1" x1="69.5" y1="404.5" x2="69.5" y2="341.62"/>
		<g>
			<path d="M69.5,320.5c3.69,9.94,9.98,22.27,16.65,29.92L69.5,344.4l-16.64,6.02C59.52,342.77,65.82,330.44,69.5,320.5z"/>
		</g>
	</g>
</g>
<g>
	<g>
		<line class="st1" x1="70.5" y1="217" x2="70.5" y2="154.12"/>
		<g>
			<path d="M70.5,133c3.69,9.94,9.98,22.27,16.65,29.92L70.5,156.9l-16.64,6.02C60.52,155.27,66.82,142.94,70.5,133z"/>
		</g>
	</g>
</g>
<text transform="matrix(1 0 0 1 59.9854 471.0244)" class="st2 st3">x</text>
<text transform="matrix(1 0 0 1 56.4084 90.0389)" class="st2 st3">y</text>
<text transform="matrix(1 0 0 1 76.0984 90.0389)" class="st2 st4">1</text>
<g>
	<g>
		<path d="M53.83,289.11c3.6-0.66,7.32-1.59,10.34-3.76c2.88-2.07,4.7-5.02,5.91-8.31c1.22-3.31,1.81-6.82,2.76-10.21
			c0.94-3.32,2.38-6.45,4.67-9.06c2.5-2.85,5.84-5,9.69-5.27c1.92-0.13,1.93-3.14,0-3c-7.08,0.5-12.76,5.74-15.62,12
			c-1.47,3.21-2.18,6.66-3.02,10.07c-0.83,3.32-1.79,6.87-4.1,9.5c-2.9,3.3-7.27,4.39-11.43,5.15
			C51.13,286.56,51.94,289.46,53.83,289.11L53.83,289.11z"/>
	</g>
</g>
<g>
	<ellipse class="st0" cx="232" cy="268.03" rx="51.5" ry="51.5"/>
	<path d="M232,219c27.02,0,49,21.98,49,49s-21.98,49-49,49s-49-21.98-49-49S204.98,219,232,219 M232,214c-29.82,0-54,24.18-54,54
		s24.18,54,54,54s54-24.18,54-54S261.82,214,232,214L232,214z"/>
</g>
<g>
	<ellipse class="st0" cx="232.01" cy="81" rx="51.5" ry="51.5"/>
	<path d="M232,32c27.02,0,49,21.98,49,49s-21.98,49-49,49s-49-21.98-49-49S204.98,32,232,32 M232,27c-29.82,0-54,24.18-54,54
		s24.18,54,54,54s54-24.18,54-54S261.82,27,232,27L232,27z"/>
</g>
<g>
	<g>
		<line class="st1" x1="232.5" y1="219" x2="232.5" y2="156.12"/>
		<g>
			<path d="M232.5,135c3.69,9.94,9.98,22.27,16.65,29.92l-16.65-6.02l-16.64,6.02C222.52,157.27,228.82,144.94,232.5,135z"/>
		</g>
	</g>
</g>
<text transform="matrix(1 0 0 1 218.4084 92.0389)" class="st2 st3">y</text>
<text transform="matrix(1 0 0 1 238.0984 92.0389)" class="st2 st4">2</text>
<g>
	<g>
		<path d="M215.83,291.11c3.6-0.66,7.32-1.59,10.34-3.76c2.88-2.07,4.7-5.02,5.91-8.31c1.22-3.31,1.81-6.82,2.76-10.21
			c0.94-3.32,2.38-6.45,4.67-9.06c2.5-2.85,5.84-5,9.69-5.27c1.92-0.13,1.93-3.14,0-3c-7.08,0.5-12.76,5.74-15.62,12
			c-1.47,3.21-2.18,6.66-3.02,10.07c-0.83,3.32-1.79,6.87-4.1,9.5c-2.9,3.3-7.27,4.39-11.43,5.15
			C213.13,288.56,213.94,291.46,215.83,291.11L215.83,291.11z"/>
	</g>
</g>
<g>
	<ellipse class="st0" cx="394.01" cy="270.04" rx="51.5" ry="51.5"/>
	<path d="M394,221c27.02,0,49,21.98,49,49s-21.98,49-49,49s-49-21.98-49-49S366.98,221,394,221 M394,216c-29.82,0-54,24.18-54,54
		s24.18,54,54,54s54-24.18,54-54S423.82,216,394,216L394,216z"/>
</g>
<g>
	<ellipse class="st0" cx="394.01" cy="82.99" rx="51.5" ry="51.5"/>
	<path d="M394,34c27.02,0,49,21.98,49,49s-21.98,49-49,49s-49-21.98-49-49S366.98,34,394,34 M394,29c-29.82,0-54,24.18-54,54
		s24.18,54,54,54s54-24.18,54-54S423.82,29,394,29L394,29z"/>
</g>
<g>
	<g>
		<line class="st1" x1="394.5" y1="221" x2="394.5" y2="158.12"/>
		<g>
			<path d="M394.5,137c3.69,9.94,9.98,22.27,16.65,29.92l-16.65-6.02l-16.64,6.02C384.52,159.27,390.82,146.94,394.5,137z"/>
		</g>
	</g>
</g>
<text transform="matrix(1 0 0 1 380.4084 94.0389)" class="st2 st3">y</text>
<text transform="matrix(1 0 0 1 400.0984 94.0389)" class="st2 st4">3</text>
<g>
	<g>
		<path d="M377.83,293.11c3.6-0.66,7.32-1.59,10.34-3.76c2.88-2.07,4.7-5.02,5.91-8.31c1.22-3.31,1.81-6.82,2.76-10.21
			c0.94-3.32,2.38-6.45,4.67-9.06c2.5-2.85,5.84-5,9.69-5.27c1.92-0.13,1.93-3.14,0-3c-7.08,0.5-12.76,5.74-15.62,12
			c-1.47,3.21-2.18,6.66-3.02,10.07c-0.83,3.32-1.79,6.87-4.1,9.5c-2.9,3.3-7.27,4.39-11.43,5.15
			C375.13,290.56,375.94,293.46,377.83,293.11L377.83,293.11z"/>
	</g>
</g>
<g>
	<g>
		<line class="st1" x1="124" y1="266" x2="156.89" y2="267.22"/>
		<g>
			<path d="M178,268c-10.07,3.32-22.63,9.15-30.51,15.53l6.63-16.41l-5.4-16.85C156.11,257.21,168.2,263.95,178,268z"/>
		</g>
	</g>
</g>
<g>
	<g>
		<line class="st1" x1="285.5" y1="271.5" x2="318.38" y2="270.89"/>
		<g>
			<path d="M339.5,270.5c-9.87,3.87-22.08,10.39-29.6,17.2l5.71-16.75l-6.33-16.53C317.05,260.94,329.49,267,339.5,270.5z"/>
		</g>
	</g>
</g>
</svg>
