<?xml version="1.0" encoding="utf-8"?>
<!-- Generator: Adobe Illustrator 25.0.0, SVG Export Plug-In . SVG Version: 6.00 Build 0)  -->
<svg version="1.1" id="Layer_1" xmlns="http://www.w3.org/2000/svg" xmlns:xlink="http://www.w3.org/1999/xlink" x="0px" y="0px"
	 viewBox="0 0 689 533" style="enable-background:new 0 0 689 533;" xml:space="preserve">
<style type="text/css">
	.st0{fill:#FFFFFF;}
	.st1{fill:none;stroke:#000000;stroke-width:5;stroke-miterlimit:10;}
	.st2{font-family:'TimesNewRomanPS-BoldItalicMT';}
	.st3{font-size:44.366px;}
	.st4{font-size:25px;}
</style>
<g>
	<circle class="st0" cx="507" cy="84" r="51.5"/>
	<path d="M507,35c27.02,0,49,21.98,49,49s-21.98,49-49,49s-49-21.98-49-49S479.98,35,507,35 M507,30c-29.82,0-54,24.18-54,54
		s24.18,54,54,54s54-24.18,54-54S536.82,30,507,30L507,30z"/>
</g>
<g>
	<circle class="st0" cx="183" cy="266" r="51.5"/>
	<path d="M183,217c27.02,0,49,21.98,49,49c0,27.02-21.98,49-49,49s-49-21.98-49-49C134,238.98,155.98,217,183,217 M183,212
		c-29.82,0-54,24.18-54,54s24.18,54,54,54c29.82,0,54-24.18,54-54S212.82,212,183,212L183,212z"/>
</g>
<g>
	<circle class="st0" cx="182" cy="459" r="51.5"/>
	<path d="M182,410c27.02,0,49,21.98,49,49c0,27.02-21.98,49-49,49s-49-21.98-49-49C133,431.98,154.98,410,182,410 M182,405
		c-29.82,0-54,24.18-54,54s24.18,54,54,54c29.82,0,54-24.18,54-54S211.82,405,182,405L182,405z"/>
</g>
<g>
	<g>
		<line class="st1" x1="182.5" y1="404.5" x2="182.5" y2="341.62"/>
		<g>
			<path d="M182.5,320.5c3.69,9.94,9.98,22.27,16.65,29.92l-16.65-6.02l-16.64,6.02C172.52,342.77,178.82,330.44,182.5,320.5z"/>
		</g>
	</g>
</g>
<g>
	<g>
		<line class="st1" x1="344.5" y1="406" x2="344.5" y2="343.12"/>
		<g>
			<path d="M344.5,322c3.69,9.94,9.98,22.27,16.65,29.92l-16.65-6.02l-16.64,6.02C334.52,344.27,340.82,331.94,344.5,322z"/>
		</g>
	</g>
</g>
<text transform="matrix(1 0 0 1 496.9854 97.0244)" class="st2 st3">y</text>
<text transform="matrix(1 0 0 1 168.4084 470.0389)"><tspan x="0" y="0" class="st2 st3">x</tspan><tspan x="22.18" y="0" class="st2 st4">1</tspan></text>
<g>
	<g>
		<path d="M166.83,289.11c3.6-0.66,7.32-1.59,10.34-3.76c2.88-2.07,4.7-5.02,5.91-8.31c1.22-3.31,1.81-6.82,2.76-10.21
			c0.94-3.32,2.38-6.45,4.67-9.06c2.5-2.85,5.84-5,9.69-5.27c1.92-0.13,1.93-3.14,0-3c-7.08,0.5-12.76,5.74-15.62,12
			c-1.47,3.21-2.18,6.66-3.02,10.07c-0.83,3.32-1.79,6.87-4.1,9.5c-2.9,3.3-7.27,4.39-11.43,5.15
			C164.13,286.56,164.94,289.46,166.83,289.11L166.83,289.11z"/>
	</g>
</g>
<g>
	<ellipse transform="matrix(0.2298 -0.9732 0.9732 0.2298 4.9041 542.1965)" class="st0" cx="345" cy="268" rx="51.5" ry="51.5"/>
	<path d="M345,219c27.02,0,49,21.98,49,49s-21.98,49-49,49s-49-21.98-49-49S317.98,219,345,219 M345,214c-29.82,0-54,24.18-54,54
		s24.18,54,54,54s54-24.18,54-54S374.82,214,345,214L345,214z"/>
</g>
<g>
	
		<ellipse transform="matrix(0.1602 -0.9871 0.9871 0.1602 -166.1504 726.7137)" class="st0" cx="344" cy="461" rx="51.5" ry="51.5"/>
	<path d="M344,412c27.02,0,49,21.98,49,49s-21.98,49-49,49s-49-21.98-49-49S316.98,412,344,412 M344,407c-29.82,0-54,24.18-54,54
		s24.18,54,54,54s54-24.18,54-54S373.82,407,344,407L344,407z"/>
</g>
<g>
	<g>
		<line class="st1" x1="506.5" y1="408" x2="506.5" y2="345.12"/>
		<g>
			<path d="M506.5,324c3.69,9.94,9.98,22.27,16.65,29.92l-16.65-6.02l-16.64,6.02C496.52,346.27,502.82,333.94,506.5,324z"/>
		</g>
	</g>
</g>
<text transform="matrix(1 0 0 1 330.4084 472.0389)"><tspan x="0" y="0" class="st2 st3">x</tspan><tspan x="22.18" y="0" class="st2 st4">2</tspan></text>
<g>
	<g>
		<path d="M328.83,291.11c3.6-0.66,7.32-1.59,10.34-3.76c2.88-2.07,4.7-5.02,5.91-8.31c1.22-3.31,1.81-6.82,2.76-10.21
			c0.94-3.32,2.38-6.45,4.67-9.06c2.5-2.85,5.84-5,9.69-5.27c1.92-0.13,1.93-3.14,0-3c-7.08,0.5-12.76,5.74-15.62,12
			c-1.47,3.21-2.18,6.66-3.02,10.07c-0.83,3.32-1.79,6.87-4.1,9.5c-2.9,3.3-7.27,4.39-11.43,5.15
			C326.13,288.56,326.94,291.46,328.83,291.11L328.83,291.11z"/>
	</g>
</g>
<g>
	<ellipse transform="matrix(0.2298 -0.9732 0.9732 0.2298 127.7375 701.4033)" class="st0" cx="507" cy="270" rx="51.5" ry="51.5"/>
	<path d="M507,221c27.02,0,49,21.98,49,49s-21.98,49-49,49s-49-21.98-49-49S479.98,221,507,221 M507,216c-29.82,0-54,24.18-54,54
		s24.18,54,54,54s54-24.18,54-54S536.82,216,507,216L507,216z"/>
</g>
<g>
	<ellipse transform="matrix(0.1602 -0.9871 0.9871 0.1602 -32.0741 888.3015)" class="st0" cx="506" cy="463" rx="51.5" ry="51.5"/>
	<path d="M506,414c27.02,0,49,21.98,49,49s-21.98,49-49,49s-49-21.98-49-49S478.98,414,506,414 M506,409c-29.82,0-54,24.18-54,54
		s24.18,54,54,54s54-24.18,54-54S535.82,409,506,409L506,409z"/>
</g>
<g>
	<g>
		<line class="st1" x1="507.5" y1="221" x2="507.5" y2="158.12"/>
		<g>
			<path d="M507.5,137c3.69,9.94,9.98,22.27,16.65,29.92l-16.65-6.02l-16.64,6.02C497.52,159.27,503.82,146.94,507.5,137z"/>
		</g>
	</g>
</g>
<text transform="matrix(1 0 0 1 492.4084 474.0389)"><tspan x="0" y="0" class="st2 st3">x</tspan><tspan x="22.18" y="0" class="st2 st4">3</tspan></text>
<g>
	<g>
		<path d="M490.83,293.11c3.6-0.66,7.32-1.59,10.34-3.76c2.88-2.07,4.7-5.02,5.91-8.31c1.22-3.31,1.81-6.82,2.76-10.21
			c0.94-3.32,2.38-6.45,4.67-9.06c2.5-2.85,5.84-5,9.69-5.27c1.92-0.13,1.93-3.14,0-3c-7.08,0.5-12.76,5.74-15.62,12
			c-1.47,3.21-2.18,6.66-3.02,10.07c-0.83,3.32-1.79,6.87-4.1,9.5c-2.9,3.3-7.27,4.39-11.43,5.15
			C488.13,290.56,488.94,293.46,490.83,293.11L490.83,293.11z"/>
	</g>
</g>
<g>
	<g>
		<line class="st1" x1="237" y1="266" x2="269.89" y2="267.22"/>
		<g>
			<path d="M291,268c-10.07,3.32-22.63,9.15-30.51,15.53l6.63-16.41l-5.4-16.85C269.11,257.21,281.2,263.95,291,268z"/>
		</g>
	</g>
</g>
<g>
	<g>
		<line class="st1" x1="398.5" y1="271.5" x2="431.38" y2="270.89"/>
		<g>
			<path d="M452.5,270.5c-9.87,3.87-22.08,10.39-29.6,17.2l5.71-16.75l-6.33-16.53C430.05,260.94,442.49,267,452.5,270.5z"/>
		</g>
	</g>
</g>
</svg>
