<?xml version="1.0" encoding="utf-8"?>
<!-- Generator: Adobe Illustrator 25.0.0, SVG Export Plug-In . SVG Version: 6.00 Build 0)  -->
<svg version="1.1" id="Layer_1" xmlns="http://www.w3.org/2000/svg" xmlns:xlink="http://www.w3.org/1999/xlink" x="0px" y="0px"
	 viewBox="0 0 816 533" style="enable-background:new 0 0 816 533;" xml:space="preserve">
<style type="text/css">
	.st0{fill:#FFFFFF;}
	.st1{fill:none;stroke:#000000;stroke-width:5;stroke-miterlimit:10;}
	.st2{font-family:'TimesNewRomanPS-BoldItalicMT';}
	.st3{font-size:44.366px;}
	.st4{font-size:25px;}
</style>
<g>
	<circle class="st0" cx="247" cy="266" r="51.5"/>
	<path d="M247,217c27.02,0,49,21.98,49,49c0,27.02-21.98,49-49,49s-49-21.98-49-49C198,238.98,219.98,217,247,217 M247,212
		c-29.82,0-54,24.18-54,54s24.18,54,54,54c29.82,0,54-24.18,54-54S276.82,212,247,212L247,212z"/>
</g>
<g>
	<circle class="st0" cx="246" cy="459" r="51.5"/>
	<path d="M246,410c27.02,0,49,21.98,49,49c0,27.02-21.98,49-49,49s-49-21.98-49-49C197,431.98,218.98,410,246,410 M246,405
		c-29.82,0-54,24.18-54,54s24.18,54,54,54c29.82,0,54-24.18,54-54S275.82,405,246,405L246,405z"/>
</g>
<g>
	<g>
		<line class="st1" x1="246.5" y1="404.5" x2="246.5" y2="341.62"/>
		<g>
			<path d="M246.5,320.5c3.69,9.94,9.98,22.27,16.65,29.92l-16.65-6.02l-16.64,6.02C236.52,342.77,242.82,330.44,246.5,320.5z"/>
		</g>
	</g>
</g>
<g>
	<g>
		<line class="st1" x1="408.5" y1="406" x2="408.5" y2="343.12"/>
		<g>
			<path d="M408.5,322c3.69,9.94,9.98,22.27,16.65,29.92l-16.65-6.02l-16.64,6.02C398.52,344.27,404.82,331.94,408.5,322z"/>
		</g>
	</g>
</g>
<text transform="matrix(1 0 0 1 232.4084 470.0389)"><tspan x="0" y="0" class="st2 st3">x</tspan><tspan x="22.18" y="0" class="st2 st4">1</tspan></text>
<g>
	<g>
		<path d="M230.83,289.11c3.6-0.66,7.32-1.59,10.34-3.76c2.88-2.07,4.7-5.02,5.91-8.31c1.22-3.31,1.81-6.82,2.76-10.21
			c0.94-3.32,2.38-6.45,4.67-9.06c2.5-2.85,5.84-5,9.69-5.27c1.92-0.13,1.93-3.14,0-3c-7.08,0.5-12.76,5.74-15.62,12
			c-1.47,3.21-2.18,6.66-3.02,10.07c-0.83,3.32-1.79,6.87-4.1,9.5c-2.9,3.3-7.27,4.39-11.43,5.15
			C228.13,286.56,228.94,289.46,230.83,289.11L230.83,289.11z"/>
	</g>
</g>
<g>
	<ellipse transform="matrix(0.2298 -0.9732 0.9732 0.2298 54.1999 604.4844)" class="st0" cx="409" cy="268" rx="51.5" ry="51.5"/>
	<path d="M409,219c27.02,0,49,21.98,49,49s-21.98,49-49,49s-49-21.98-49-49S381.98,219,409,219 M409,214c-29.82,0-54,24.18-54,54
		s24.18,54,54,54s54-24.18,54-54S438.82,214,409,214L409,214z"/>
</g>
<g>
	<ellipse transform="matrix(0.1602 -0.9871 0.9871 0.1602 -112.402 789.8873)" class="st0" cx="408" cy="461" rx="51.5" ry="51.5"/>
	<path d="M408,412c27.02,0,49,21.98,49,49s-21.98,49-49,49s-49-21.98-49-49S380.98,412,408,412 M408,407c-29.82,0-54,24.18-54,54
		s24.18,54,54,54s54-24.18,54-54S437.82,407,408,407L408,407z"/>
</g>
<g>
	<g>
		<line class="st1" x1="570.5" y1="408" x2="570.5" y2="345.12"/>
		<g>
			<path d="M570.5,324c3.69,9.94,9.98,22.27,16.65,29.92l-16.65-6.02l-16.64,6.02C560.52,346.27,566.82,333.94,570.5,324z"/>
		</g>
	</g>
</g>
<text transform="matrix(1 0 0 1 394.4084 472.0389)"><tspan x="0" y="0" class="st2 st3">x</tspan><tspan x="22.18" y="0" class="st2 st4">2</tspan></text>
<g>
	<g>
		<path d="M392.83,291.11c3.6-0.66,7.32-1.59,10.34-3.76c2.88-2.07,4.7-5.02,5.91-8.31c1.22-3.31,1.81-6.82,2.76-10.21
			c0.94-3.32,2.38-6.45,4.67-9.06c2.5-2.85,5.84-5,9.69-5.27c1.92-0.13,1.93-3.14,0-3c-7.08,0.5-12.76,5.74-15.62,12
			c-1.47,3.21-2.18,6.66-3.02,10.07c-0.83,3.32-1.79,6.87-4.1,9.5c-2.9,3.3-7.27,4.39-11.43,5.15
			C390.13,288.56,390.94,291.46,392.83,291.11L392.83,291.11z"/>
	</g>
</g>
<g>
	<ellipse transform="matrix(0.2298 -0.9732 0.9732 0.2298 177.0333 763.6912)" class="st0" cx="571" cy="270" rx="51.5" ry="51.5"/>
	<path d="M571,221c27.02,0,49,21.98,49,49s-21.98,49-49,49s-49-21.98-49-49S543.98,221,571,221 M571,216c-29.82,0-54,24.18-54,54
		s24.18,54,54,54s54-24.18,54-54S600.82,216,571,216L571,216z"/>
</g>
<g>
	<ellipse transform="matrix(0.1602 -0.9871 0.9871 0.1602 21.6742 951.4751)" class="st0" cx="570" cy="463" rx="51.5" ry="51.5"/>
	<path d="M570,414c27.02,0,49,21.98,49,49s-21.98,49-49,49s-49-21.98-49-49S542.98,414,570,414 M570,409c-29.82,0-54,24.18-54,54
		s24.18,54,54,54s54-24.18,54-54S599.82,409,570,409L570,409z"/>
</g>
<text transform="matrix(1 0 0 1 556.4084 474.0389)"><tspan x="0" y="0" class="st2 st3">x</tspan><tspan x="22.18" y="0" class="st2 st4">3</tspan></text>
<g>
	<g>
		<path d="M554.83,293.11c3.6-0.66,7.32-1.59,10.34-3.76c2.88-2.07,4.7-5.02,5.91-8.31c1.22-3.31,1.81-6.82,2.76-10.21
			c0.94-3.32,2.38-6.45,4.67-9.06c2.5-2.85,5.84-5,9.69-5.27c1.92-0.13,1.93-3.14,0-3c-7.08,0.5-12.76,5.74-15.62,12
			c-1.47,3.21-2.18,6.66-3.02,10.07c-0.83,3.32-1.79,6.87-4.1,9.5c-2.9,3.3-7.27,4.39-11.43,5.15
			C552.13,290.56,552.94,293.46,554.83,293.11L554.83,293.11z"/>
	</g>
</g>
<g>
	<g>
		<line class="st1" x1="301" y1="266" x2="333.89" y2="267.22"/>
		<g>
			<path d="M355,268c-10.07,3.32-22.63,9.15-30.51,15.53l6.63-16.41l-5.4-16.85C333.11,257.21,345.2,263.95,355,268z"/>
		</g>
	</g>
</g>
<g>
	<g>
		<line class="st1" x1="462.5" y1="271.5" x2="495.38" y2="270.89"/>
		<g>
			<path d="M516.5,270.5c-9.87,3.87-22.08,10.39-29.6,17.2l5.71-16.75l-6.33-16.53C494.05,260.94,506.49,267,516.5,270.5z"/>
		</g>
	</g>
</g>
<g>
	<g>
		<line class="st1" x1="245.65" y1="214.52" x2="245.65" y2="151.64"/>
		<g>
			<path d="M245.65,130.52c3.69,9.94,9.98,22.27,16.65,29.92l-16.65-6.02l-16.64,6.02C235.67,152.79,241.97,140.46,245.65,130.52z"
				/>
		</g>
	</g>
</g>
<g>
	<g>
		<line class="st1" x1="407.65" y1="216.02" x2="407.65" y2="153.14"/>
		<g>
			<path d="M407.65,132.02c3.69,9.94,9.98,22.27,16.65,29.92l-16.65-6.02l-16.64,6.02C397.67,154.29,403.97,141.96,407.65,132.02z"
				/>
		</g>
	</g>
</g>
<g>
	<g>
		<line class="st1" x1="569.65" y1="218.02" x2="569.65" y2="155.14"/>
		<g>
			<path d="M569.65,134.02c3.69,9.94,9.98,22.27,16.65,29.92l-16.65-6.02l-16.64,6.02C559.67,156.29,565.97,143.96,569.65,134.02z"
				/>
		</g>
	</g>
</g>
<g>
	<ellipse transform="matrix(0.9732 -0.2298 0.2298 0.9732 -10.8805 58.5525)" class="st0" cx="246" cy="76" rx="51.5" ry="51.5"/>
	<path d="M246,27c27.02,0,49,21.98,49,49s-21.98,49-49,49s-49-21.98-49-49S218.98,27,246,27 M246,22c-29.82,0-54,24.18-54,54
		s24.18,54,54,54s54-24.18,54-54S275.82,22,246,22L246,22z"/>
</g>
<text transform="matrix(1 0 0 1 232.4084 87.0389)"><tspan x="0" y="0" class="st2 st3">y</tspan><tspan x="19.69" y="0" class="st2 st4">1</tspan></text>
<g>
	<circle class="st0" cx="408" cy="78" r="51.5"/>
	<path d="M408,29c27.02,0,49,21.98,49,49s-21.98,49-49,49s-49-21.98-49-49S380.98,29,408,29 M408,24c-29.82,0-54,24.18-54,54
		s24.18,54,54,54s54-24.18,54-54S437.82,24,408,24L408,24z"/>
</g>
<text transform="matrix(1 0 0 1 394.4084 89.0389)"><tspan x="0" y="0" class="st2 st3">y</tspan><tspan x="19.69" y="0" class="st2 st4">2</tspan></text>
<g>
	<circle class="st0" cx="570" cy="80" r="51.5"/>
	<path d="M570,31c27.02,0,49,21.98,49,49s-21.98,49-49,49s-49-21.98-49-49S542.98,31,570,31 M570,26c-29.82,0-54,24.18-54,54
		s24.18,54,54,54s54-24.18,54-54S599.82,26,570,26L570,26z"/>
</g>
<text transform="matrix(1 0 0 1 556.4084 91.0389)"><tspan x="0" y="0" class="st2 st3">y</tspan><tspan x="19.69" y="0" class="st2 st4">3</tspan></text>
</svg>
