<?xml version="1.0" encoding="utf-8"?>
<!-- Generator: Adobe Illustrator 25.0.0, SVG Export Plug-In . SVG Version: 6.00 Build 0)  -->
<svg version="1.1" id="Layer_1" xmlns="http://www.w3.org/2000/svg" xmlns:xlink="http://www.w3.org/1999/xlink" x="0px" y="0px"
	 viewBox="0 0 512 533" style="enable-background:new 0 0 512 533;" xml:space="preserve">
<style type="text/css">
	.st0{fill:#FFFFFF;}
	.st1{fill:none;stroke:#000000;stroke-width:5;stroke-miterlimit:10;}
	.st2{font-family:'TimesNewRomanPS-BoldItalicMT';}
	.st3{font-size:44.366px;}
</style>
<g>
	<circle class="st0" cx="256" cy="456" r="51.5"/>
	<path d="M256,407c27.02,0,49,21.98,49,49s-21.98,49-49,49s-49-21.98-49-49S228.98,407,256,407 M256,402c-29.82,0-54,24.18-54,54
		s24.18,54,54,54s54-24.18,54-54S285.82,402,256,402L256,402z"/>
</g>
<g>
	<circle class="st0" cx="256" cy="264" r="51.5"/>
	<path d="M256,215c27.02,0,49,21.98,49,49s-21.98,49-49,49s-49-21.98-49-49S228.98,215,256,215 M256,210c-29.82,0-54,24.18-54,54
		s24.18,54,54,54s54-24.18,54-54S285.82,210,256,210L256,210z"/>
</g>
<g>
	<circle class="st0" cx="256" cy="77" r="51.5"/>
	<path d="M256,28c27.02,0,49,21.98,49,49s-21.98,49-49,49s-49-21.98-49-49S228.98,28,256,28 M256,23c-29.82,0-54,24.18-54,54
		s24.18,54,54,54s54-24.18,54-54S285.82,23,256,23L256,23z"/>
</g>
<g>
	<g>
		<line class="st1" x1="255.5" y1="402.5" x2="255.5" y2="339.62"/>
		<g>
			<path d="M255.5,318.5c3.69,9.94,9.98,22.27,16.65,29.92l-16.65-6.02l-16.64,6.02C245.52,340.77,251.82,328.44,255.5,318.5z"/>
		</g>
	</g>
</g>
<g>
	<g>
		<line class="st1" x1="256.5" y1="215" x2="256.5" y2="152.12"/>
		<g>
			<path d="M256.5,131c3.69,9.94,9.98,22.27,16.65,29.92l-16.65-6.02l-16.64,6.02C246.52,153.27,252.82,140.94,256.5,131z"/>
		</g>
	</g>
</g>
<text transform="matrix(1 0 0 1 245.9854 469.0244)" class="st2 st3">x</text>
<text transform="matrix(1 0 0 1 247.4084 88.0389)" class="st2 st3">y</text>
<g>
	<g>
		<path d="M239.83,287.11c3.6-0.66,7.32-1.59,10.34-3.76c2.88-2.07,4.7-5.02,5.91-8.31c1.22-3.31,1.81-6.82,2.76-10.21
			c0.94-3.32,2.38-6.45,4.67-9.06c2.5-2.85,5.84-5,9.69-5.27c1.92-0.13,1.93-3.14,0-3c-7.08,0.5-12.76,5.74-15.62,12
			c-1.47,3.21-2.18,6.66-3.02,10.07c-0.83,3.32-1.79,6.87-4.1,9.5c-2.9,3.3-7.27,4.39-11.43,5.15
			C237.13,284.56,237.94,287.46,239.83,287.11L239.83,287.11z"/>
	</g>
</g>
</svg>
