<?xml version="1.0" encoding="utf-8"?>
<!-- Generator: Adobe Illustrator 25.0.0, SVG Export Plug-In . SVG Version: 6.00 Build 0)  -->
<svg version="1.1" id="Layer_1" xmlns="http://www.w3.org/2000/svg" xmlns:xlink="http://www.w3.org/1999/xlink" x="0px" y="0px"
	 viewBox="0 0 757 533" style="enable-background:new 0 0 757 533;" xml:space="preserve">
<style type="text/css">
	.st0{fill:#FFFFFF;}
	.st1{fill:none;stroke:#000000;stroke-width:5;stroke-miterlimit:10;}
	.st2{font-family:'TimesNewRomanPS-BoldItalicMT';}
	.st3{font-size:44.366px;}
	.st4{font-size:25px;}
</style>
<g>
	<circle class="st0" cx="54" cy="266" r="51.5"/>
	<path d="M54,217c27.02,0,49,21.98,49,49c0,27.02-21.98,49-49,49S5,293.02,5,266C5,238.98,26.98,217,54,217 M54,212
		c-29.82,0-54,24.18-54,54s24.18,54,54,54c29.82,0,54-24.18,54-54S83.82,212,54,212L54,212z"/>
</g>
<g>
	<circle class="st0" cx="53" cy="459" r="51.5"/>
	<path d="M53,410c27.02,0,49,21.98,49,49c0,27.02-21.98,49-49,49S4,486.02,4,459C4,431.98,25.98,410,53,410 M53,405
		c-29.82,0-54,24.18-54,54s24.18,54,54,54c29.82,0,54-24.18,54-54S82.82,405,53,405L53,405z"/>
</g>
<g>
	<g>
		<line class="st1" x1="53.5" y1="404.5" x2="53.5" y2="341.62"/>
		<g>
			<path d="M53.5,320.5c3.69,9.94,9.98,22.27,16.65,29.92L53.5,344.4l-16.64,6.02C43.52,342.77,49.82,330.44,53.5,320.5z"/>
		</g>
	</g>
</g>
<g>
	<g>
		<line class="st1" x1="215.5" y1="406" x2="215.5" y2="343.12"/>
		<g>
			<path d="M215.5,322c3.69,9.94,9.98,22.27,16.65,29.92l-16.65-6.02l-16.64,6.02C205.52,344.27,211.82,331.94,215.5,322z"/>
		</g>
	</g>
</g>
<text transform="matrix(1 0 0 1 39.4084 470.0389)"><tspan x="0" y="0" class="st2 st3">x</tspan><tspan x="22.18" y="0" class="st2 st4">1</tspan></text>
<g>
	<g>
		<path d="M37.83,289.11c3.6-0.66,7.32-1.59,10.34-3.76c2.88-2.07,4.7-5.02,5.91-8.31c1.22-3.31,1.81-6.82,2.76-10.21
			c0.94-3.32,2.38-6.45,4.67-9.06c2.5-2.85,5.84-5,9.69-5.27c1.92-0.13,1.93-3.14,0-3c-7.08,0.5-12.76,5.74-15.62,12
			c-1.47,3.21-2.18,6.66-3.02,10.07c-0.83,3.32-1.79,6.87-4.1,9.5c-2.9,3.3-7.27,4.39-11.43,5.15
			C35.13,286.56,35.94,289.46,37.83,289.11L37.83,289.11z"/>
	</g>
</g>
<g>
	<ellipse transform="matrix(0.2298 -0.9732 0.9732 0.2298 -94.4576 416.6474)" class="st0" cx="216" cy="268" rx="51.5" ry="51.5"/>
	<path d="M216,219c27.02,0,49,21.98,49,49s-21.98,49-49,49s-49-21.98-49-49S188.98,219,216,219 M216,214c-29.82,0-54,24.18-54,54
		s24.18,54,54,54s54-24.18,54-54S245.82,214,216,214L216,214z"/>
</g>
<g>
	
		<ellipse transform="matrix(0.1602 -0.9871 0.9871 0.1602 -274.4868 599.3794)" class="st0" cx="215" cy="461" rx="51.5" ry="51.5"/>
	<path d="M215,412c27.02,0,49,21.98,49,49s-21.98,49-49,49s-49-21.98-49-49S187.98,412,215,412 M215,407c-29.82,0-54,24.18-54,54
		s24.18,54,54,54s54-24.18,54-54S244.82,407,215,407L215,407z"/>
</g>
<g>
	<g>
		<line class="st1" x1="377.5" y1="408" x2="377.5" y2="345.12"/>
		<g>
			<path d="M377.5,324c3.69,9.94,9.98,22.27,16.65,29.92l-16.65-6.02l-16.64,6.02C367.52,346.27,373.82,333.94,377.5,324z"/>
		</g>
	</g>
</g>
<text transform="matrix(1 0 0 1 201.4084 472.0389)"><tspan x="0" y="0" class="st2 st3">x</tspan><tspan x="22.18" y="0" class="st2 st4">2</tspan></text>
<g>
	<g>
		<path d="M199.83,291.11c3.6-0.66,7.32-1.59,10.34-3.76c2.88-2.07,4.7-5.02,5.91-8.31c1.22-3.31,1.81-6.82,2.76-10.21
			c0.94-3.32,2.38-6.45,4.67-9.06c2.5-2.85,5.84-5,9.69-5.27c1.92-0.13,1.93-3.14,0-3c-7.08,0.5-12.76,5.74-15.62,12
			c-1.47,3.21-2.18,6.66-3.02,10.07c-0.83,3.32-1.79,6.87-4.1,9.5c-2.9,3.3-7.27,4.39-11.43,5.15
			C197.13,288.56,197.94,291.46,199.83,291.11L199.83,291.11z"/>
	</g>
</g>
<g>
	<ellipse transform="matrix(0.2298 -0.9732 0.9732 0.2298 28.3758 575.8542)" class="st0" cx="378" cy="270" rx="51.5" ry="51.5"/>
	<path d="M378,221c27.02,0,49,21.98,49,49s-21.98,49-49,49s-49-21.98-49-49S350.98,221,378,221 M378,216c-29.82,0-54,24.18-54,54
		s24.18,54,54,54s54-24.18,54-54S407.82,216,378,216L378,216z"/>
</g>
<g>
	
		<ellipse transform="matrix(0.1602 -0.9871 0.9871 0.1602 -140.4106 760.9672)" class="st0" cx="377" cy="463" rx="51.5" ry="51.5"/>
	<path d="M377,414c27.02,0,49,21.98,49,49s-21.98,49-49,49s-49-21.98-49-49S349.98,414,377,414 M377,409c-29.82,0-54,24.18-54,54
		s24.18,54,54,54s54-24.18,54-54S406.82,409,377,409L377,409z"/>
</g>
<text transform="matrix(1 0 0 1 363.4084 474.0389)"><tspan x="0" y="0" class="st2 st3">x</tspan><tspan x="22.18" y="0" class="st2 st4">3</tspan></text>
<g>
	<g>
		<path d="M361.83,293.11c3.6-0.66,7.32-1.59,10.34-3.76c2.88-2.07,4.7-5.02,5.91-8.31c1.22-3.31,1.81-6.82,2.76-10.21
			c0.94-3.32,2.38-6.45,4.67-9.06c2.5-2.85,5.84-5,9.69-5.27c1.92-0.13,1.93-3.14,0-3c-7.08,0.5-12.76,5.74-15.62,12
			c-1.47,3.21-2.18,6.66-3.02,10.07c-0.83,3.32-1.79,6.87-4.1,9.5c-2.9,3.3-7.27,4.39-11.43,5.15
			C359.13,290.56,359.94,293.46,361.83,293.11L361.83,293.11z"/>
	</g>
</g>
<g>
	<g>
		<line class="st1" x1="108" y1="266" x2="140.89" y2="267.22"/>
		<g>
			<path d="M162,268c-10.07,3.32-22.63,9.15-30.51,15.53l6.63-16.41l-5.4-16.85C140.11,257.21,152.2,263.95,162,268z"/>
		</g>
	</g>
</g>
<g>
	<g>
		<line class="st1" x1="269.5" y1="271.5" x2="302.38" y2="270.89"/>
		<g>
			<path d="M323.5,270.5c-9.87,3.87-22.08,10.39-29.6,17.2l5.71-16.75l-6.33-16.53C301.05,260.94,313.49,267,323.5,270.5z"/>
		</g>
	</g>
</g>
<g>
	<circle class="st0" cx="541" cy="272" r="51.5"/>
	<path d="M541,223c27.02,0,49,21.98,49,49s-21.98,49-49,49s-49-21.98-49-49S513.98,223,541,223 M541,218c-29.82,0-54,24.18-54,54
		s24.18,54,54,54s54-24.18,54-54S570.82,218,541,218L541,218z"/>
</g>
<g>
	<g>
		<path d="M524.83,295.11c3.6-0.66,7.32-1.59,10.34-3.76c2.88-2.07,4.7-5.02,5.91-8.31c1.22-3.31,1.81-6.82,2.76-10.21
			c0.94-3.32,2.38-6.45,4.67-9.06c2.5-2.85,5.84-5,9.69-5.27c1.92-0.13,1.93-3.14,0-3c-7.08,0.5-12.76,5.74-15.62,12
			c-1.47,3.21-2.18,6.66-3.02,10.07c-0.83,3.32-1.79,6.87-4.1,9.5c-2.9,3.3-7.27,4.39-11.43,5.15
			C522.13,292.56,522.94,295.46,524.83,295.11L524.83,295.11z"/>
	</g>
</g>
<g>
	<circle class="st0" cx="703" cy="274" r="51.5"/>
	<path d="M703,225c27.02,0,49,21.98,49,49s-21.98,49-49,49s-49-21.98-49-49S675.98,225,703,225 M703,220c-29.82,0-54,24.18-54,54
		s24.18,54,54,54s54-24.18,54-54S732.82,220,703,220L703,220z"/>
</g>
<g>
	<g>
		<path d="M686.83,297.11c3.6-0.66,7.32-1.59,10.34-3.76c2.88-2.07,4.7-5.02,5.91-8.31c1.22-3.31,1.81-6.82,2.76-10.21
			c0.94-3.32,2.38-6.45,4.67-9.06c2.5-2.85,5.84-5,9.69-5.27c1.92-0.13,1.93-3.14,0-3c-7.08,0.5-12.76,5.74-15.62,12
			c-1.47,3.21-2.18,6.66-3.02,10.07c-0.83,3.32-1.79,6.87-4.1,9.5c-2.9,3.3-7.27,4.39-11.43,5.15
			C684.13,294.56,684.94,297.46,686.83,297.11L686.83,297.11z"/>
	</g>
</g>
<g>
	<g>
		<line class="st1" x1="595" y1="272" x2="627.89" y2="273.22"/>
		<g>
			<path d="M649,274c-10.07,3.32-22.63,9.15-30.51,15.53l6.63-16.41l-5.4-16.85C627.11,263.21,639.2,269.95,649,274z"/>
		</g>
	</g>
</g>
<g>
	<g>
		<line class="st1" x1="430.5" y1="273.5" x2="464.79" y2="272.83"/>
		<g>
			<path d="M485.91,272.41c-9.86,3.88-22.07,10.42-29.58,17.23l5.69-16.76l-6.35-16.52C463.44,262.87,475.9,268.92,485.91,272.41z"
				/>
		</g>
	</g>
</g>
<g>
	<g>
		<line class="st1" x1="378.65" y1="216.52" x2="378.65" y2="153.64"/>
		<g>
			<path d="M378.65,132.52c3.69,9.94,9.98,22.27,16.65,29.92l-16.65-6.02l-16.64,6.02C368.67,154.79,374.97,142.46,378.65,132.52z"
				/>
		</g>
	</g>
</g>
<g>
	<g>
		<line class="st1" x1="540.65" y1="218.02" x2="540.65" y2="155.14"/>
		<g>
			<path d="M540.65,134.02c3.69,9.94,9.98,22.27,16.65,29.92l-16.65-6.02l-16.64,6.02C530.67,156.29,536.97,143.96,540.65,134.02z"
				/>
		</g>
	</g>
</g>
<g>
	<g>
		<line class="st1" x1="702.65" y1="220.02" x2="702.65" y2="157.14"/>
		<g>
			<path d="M702.65,136.02c3.69,9.94,9.98,22.27,16.65,29.92l-16.65-6.02l-16.64,6.02C692.67,158.29,698.97,145.96,702.65,136.02z"
				/>
		</g>
	</g>
</g>
<g>
	<ellipse transform="matrix(0.9732 -0.2298 0.2298 0.9732 -7.7821 89.1633)" class="st0" cx="379" cy="78" rx="51.5" ry="51.5"/>
	<path d="M379,29c27.02,0,49,21.98,49,49s-21.98,49-49,49s-49-21.98-49-49S351.98,29,379,29 M379,24c-29.82,0-54,24.18-54,54
		s24.18,54,54,54s54-24.18,54-54S408.82,24,379,24L379,24z"/>
</g>
<text transform="matrix(1 0 0 1 365.4084 89.0389)"><tspan x="0" y="0" class="st2 st3">y</tspan><tspan x="19.69" y="0" class="st2 st4">1</tspan></text>
<g>
	<circle class="st0" cx="541" cy="80" r="51.5"/>
	<path d="M541,31c27.02,0,49,21.98,49,49s-21.98,49-49,49s-49-21.98-49-49S513.98,31,541,31 M541,26c-29.82,0-54,24.18-54,54
		s24.18,54,54,54s54-24.18,54-54S570.82,26,541,26L541,26z"/>
</g>
<text transform="matrix(1 0 0 1 527.4083 91.0389)"><tspan x="0" y="0" class="st2 st3">y</tspan><tspan x="19.69" y="0" class="st2 st4">2</tspan></text>
<g>
	<circle class="st0" cx="703" cy="82" r="51.5"/>
	<path d="M703,33c27.02,0,49,21.98,49,49s-21.98,49-49,49s-49-21.98-49-49S675.98,33,703,33 M703,28c-29.82,0-54,24.18-54,54
		s24.18,54,54,54s54-24.18,54-54S732.82,28,703,28L703,28z"/>
</g>
<text transform="matrix(1 0 0 1 689.4083 93.0389)"><tspan x="0" y="0" class="st2 st3">y</tspan><tspan x="19.69" y="0" class="st2 st4">3</tspan></text>
</svg>
